<svg width="390" height="844" viewBox="0 0 390 844" fill="none" xmlns="http://www.w3.org/2000/svg">
<path d="M197 -86.1454C261.705 -86.1454 315.369 -154.092 325.339 -243.052C327.185 -259.518 340.431 -273 357 -273H390V874H0V-273H37C53.5685 -273 66.8153 -259.518 68.6608 -243.052C78.6313 -154.092 132.295 -86.1454 197 -86.1454Z" fill="#262450"/>
<path d="M197 -85.6454C229.54 -85.6454 259.264 -102.732 282.084 -130.924C304.903 -159.116 320.842 -198.436 325.836 -242.997C327.657 -259.244 340.72 -272.5 357 -272.5H389.5V873.5H0.5V-272.5H37C53.2798 -272.5 66.3428 -259.244 68.1639 -242.997C73.1581 -198.436 89.0973 -159.116 111.916 -130.924C134.736 -102.732 164.46 -85.6454 197 -85.6454Z" stroke="url(#paint0_linear_107_1108)" stroke-opacity="0.5" style="mix-blend-mode:overlay"/>
<defs>
<linearGradient id="paint0_linear_107_1108" x1="192" y1="-288.092" x2="193.033" y2="104.301" gradientUnits="userSpaceOnUse">
<stop stop-color="white"/>
<stop offset="1" stop-color="white" stop-opacity="0"/>
</linearGradient>
</defs>
</svg>
