<svg width="15" height="19" viewBox="0 0 15 19" fill="none" xmlns="http://www.w3.org/2000/svg">
<path d="M0.7883 7.17331C0.715698 7.07502 0.663169 6.96338 0.63371 6.84479C0.604251 6.72619 0.59844 6.60295 0.616609 6.48211C0.653302 6.23806 0.785442 6.01858 0.983959 5.87195C1.18248 5.72533 1.43111 5.66357 1.67516 5.70026C1.91922 5.73695 2.1387 5.86909 2.28532 6.06761C2.62918 6.52907 2.89793 7.04199 3.08161 7.58738C3.27257 8.15323 3.36941 8.74657 3.36827 9.34377C3.36891 9.93944 3.27208 10.5312 3.08161 11.0956C2.89793 11.641 2.62918 12.1539 2.28532 12.6154C2.1387 12.8139 1.91922 12.946 1.67516 12.9827C1.43111 13.0194 1.18248 12.9577 0.983959 12.811C0.785442 12.6644 0.653302 12.4449 0.616609 12.2009C0.579915 11.9568 0.641674 11.7082 0.7883 11.5097C1.01551 11.2073 1.19363 10.871 1.31612 10.5132C1.44636 10.1369 1.514 9.74189 1.51633 9.34377C1.5179 8.94792 1.45488 8.55447 1.32978 8.17891C1.20396 7.81703 1.02116 7.47756 0.7883 7.17331ZM3.97345 5.43968C4.69772 6.61275 5.07916 7.96513 5.0746 9.34377C5.0808 10.7199 4.70258 12.0705 3.98255 13.2433C3.91832 13.3473 3.87519 13.4629 3.85563 13.5835C3.83607 13.7042 3.84047 13.8275 3.86857 13.9464C3.89666 14.0654 3.94791 14.1776 4.01939 14.2767C4.09087 14.3759 4.18117 14.46 4.28514 14.5242C4.38911 14.5884 4.50472 14.6316 4.62536 14.6511C4.746 14.6707 4.86931 14.6663 4.98825 14.6382C5.10719 14.6101 5.21944 14.5588 5.31857 14.4873C5.41771 14.4159 5.50179 14.3256 5.56603 14.2216C6.46825 12.7553 6.94118 11.0654 6.93109 9.34377C6.94178 7.62065 6.46884 5.92909 5.56603 4.46138C5.50179 4.35741 5.41771 4.26711 5.31857 4.19563C5.21944 4.12416 5.10719 4.07291 4.98825 4.04481C4.86931 4.01671 4.746 4.01232 4.62536 4.03187C4.50472 4.05143 4.38911 4.09456 4.28514 4.15879C4.18117 4.22303 4.09087 4.30712 4.01939 4.40625C3.94791 4.50539 3.89666 4.61763 3.86857 4.73657C3.84047 4.85551 3.83607 4.97882 3.85563 5.09946C3.87519 5.2201 3.91832 5.33571 3.98255 5.43968H3.97345ZM7.36336 3.68785C8.36878 5.40971 8.89801 7.36806 8.89678 9.36197C8.89743 11.3544 8.3682 13.3111 7.36336 15.0315C7.30152 15.137 7.26105 15.2536 7.24427 15.3747C7.22749 15.4958 7.23474 15.6191 7.26558 15.7374C7.29642 15.8557 7.35027 15.9667 7.42404 16.0642C7.49781 16.1617 7.59006 16.2438 7.69553 16.3056C7.80099 16.3674 7.91761 16.4079 8.03871 16.4247C8.15982 16.4415 8.28304 16.4342 8.40135 16.4034C8.51966 16.3725 8.63073 16.3187 8.72823 16.2449C8.82573 16.1711 8.90774 16.0789 8.96959 15.9734C10.1443 13.9701 10.7617 11.6889 10.7578 9.36652C10.7656 7.03561 10.1497 4.74506 8.97414 2.7323C8.84743 2.5187 8.64105 2.36418 8.40041 2.30274C8.15977 2.2413 7.90458 2.27797 7.69098 2.40469C7.47738 2.5314 7.32286 2.73778 7.26142 2.97842C7.19998 3.21905 7.23665 3.47425 7.36336 3.68785ZM10.7396 1.91326C12.0328 4.18241 12.7105 6.75018 12.7053 9.36197C12.7099 11.9722 12.0323 14.5384 10.7396 16.8061C10.6799 16.9122 10.6416 17.029 10.627 17.1498C10.6124 17.2707 10.6217 17.3932 10.6544 17.5105C10.6872 17.6277 10.7427 17.7374 10.8178 17.8332C10.8929 17.929 10.9862 18.0091 11.0923 18.0688C11.1983 18.1286 11.3151 18.1668 11.436 18.1815C11.5568 18.1961 11.6794 18.1867 11.7966 18.154C11.9139 18.1212 12.0235 18.0657 12.1193 17.9906C12.2151 17.9155 12.2952 17.8222 12.3549 17.7162C13.8071 15.1666 14.5694 12.2824 14.5664 9.34832C14.5731 6.40652 13.8108 3.51405 12.3549 0.957718C12.2343 0.743512 12.0334 0.586019 11.7966 0.519886C11.5598 0.453753 11.3065 0.484397 11.0923 0.605076C10.8781 0.725755 10.7206 0.926584 10.6544 1.16338C10.5883 1.40018 10.6189 1.65356 10.7396 1.86776" fill="white"/>
</svg>
