<svg width="17" height="22" viewBox="0 0 17 22" fill="none" xmlns="http://www.w3.org/2000/svg">
<path d="M0.71987 8.56934C0.636513 8.45648 0.576201 8.32831 0.542378 8.19215C0.508555 8.05598 0.501883 7.91448 0.522743 7.77574C0.564873 7.49553 0.716589 7.24353 0.944516 7.07519C1.17244 6.90684 1.45791 6.83593 1.73812 6.87806C2.01833 6.92019 2.27032 7.0719 2.43867 7.29983C2.83347 7.82966 3.14203 8.41857 3.35293 9.04475C3.57218 9.69443 3.68337 10.3757 3.68206 11.0613C3.6828 11.7453 3.57162 12.4247 3.35293 13.0727C3.14203 13.6989 2.83347 14.2878 2.43867 14.8176C2.27032 15.0456 2.01833 15.1973 1.73812 15.2394C1.45791 15.2815 1.17244 15.2106 0.944516 15.0423C0.716589 14.8739 0.564873 14.6219 0.522743 14.3417C0.480614 14.0615 0.551523 13.776 0.71987 13.5481C0.980737 13.201 1.18525 12.8148 1.32589 12.404C1.47542 11.972 1.55308 11.5185 1.55576 11.0613C1.55756 10.6069 1.48521 10.1551 1.34156 9.72392C1.19711 9.30842 0.987232 8.91866 0.71987 8.56934ZM4.3769 6.57887C5.20846 7.92573 5.64641 9.47847 5.64118 11.0613C5.6483 12.6414 5.21405 14.192 4.38734 15.5386C4.31359 15.658 4.26408 15.7907 4.24162 15.9292C4.21917 16.0677 4.22421 16.2093 4.25647 16.3459C4.28873 16.4824 4.34758 16.6113 4.42964 16.7251C4.51171 16.8389 4.61539 16.9355 4.73476 17.0092C4.85414 17.083 4.98687 17.1325 5.12538 17.155C5.2639 17.1774 5.40548 17.1724 5.54204 17.1401C5.6786 17.1078 5.80747 17.049 5.92129 16.9669C6.03511 16.8849 6.13166 16.7812 6.20541 16.6618C7.24129 14.9783 7.78428 13.038 7.77271 11.0613C7.78498 9.08295 7.24198 7.14079 6.20541 5.45565C6.13166 5.33627 6.03511 5.23259 5.92129 5.15052C5.80747 5.06846 5.6786 5.00962 5.54204 4.97736C5.40548 4.9451 5.2639 4.94005 5.12538 4.9625C4.98687 4.98496 4.85414 5.03448 4.73476 5.10823C4.61539 5.18198 4.51171 5.27852 4.42964 5.39234C4.34758 5.50617 4.28873 5.63504 4.25647 5.7716C4.22421 5.90816 4.21917 6.04974 4.24162 6.18825C4.26408 6.32677 4.31359 6.4595 4.38734 6.57887H4.3769ZM8.26902 4.56751C9.42338 6.54447 10.031 8.79294 10.0296 11.0822C10.0303 13.3698 9.42272 15.6164 8.26902 17.5917C8.19801 17.7128 8.15155 17.8467 8.13228 17.9858C8.11302 18.1248 8.12133 18.2663 8.15675 18.4021C8.19216 18.538 8.25398 18.6655 8.33868 18.7774C8.42338 18.8894 8.5293 18.9835 8.65039 19.0546C8.77148 19.1256 8.90537 19.172 9.04442 19.1913C9.18347 19.2106 9.32495 19.2022 9.46078 19.1668C9.59662 19.1314 9.72415 19.0696 9.83609 18.9849C9.94803 18.9002 10.0422 18.7943 10.1132 18.6732C11.462 16.373 12.1709 13.7539 12.1664 11.0875C12.1752 8.41124 11.4682 5.78135 10.1184 3.4704C9.97294 3.22516 9.73599 3.04775 9.4597 2.97721C9.18341 2.90666 8.89042 2.94877 8.64517 3.09425C8.39992 3.23974 8.22251 3.47669 8.15197 3.75298C8.08143 4.02927 8.12353 4.32226 8.26902 4.56751ZM12.1455 2.53002C13.6303 5.13535 14.4083 8.08353 14.4024 11.0822C14.4076 14.0792 13.6296 17.0255 12.1455 19.6292C12.0769 19.751 12.0329 19.8851 12.0161 20.0239C11.9993 20.1626 12.0101 20.3033 12.0477 20.438C12.0853 20.5726 12.149 20.6985 12.2352 20.8085C12.3215 20.9185 12.4286 21.0104 12.5503 21.079C12.6721 21.1476 12.8062 21.1915 12.945 21.2083C13.0837 21.2251 13.2245 21.2144 13.3591 21.1768C13.4937 21.1392 13.6196 21.0755 13.7296 20.9892C13.8396 20.9029 13.9315 20.7959 14.0001 20.6741C15.6674 17.7468 16.5426 14.4354 16.5391 11.0666C16.5469 7.68895 15.6716 4.36796 14.0001 1.43292C13.8615 1.18698 13.631 1.00615 13.3591 0.930221C13.0872 0.854291 12.7963 0.889474 12.5503 1.02803C12.3044 1.16659 12.1236 1.39717 12.0477 1.66905C11.9717 1.94093 12.0069 2.23184 12.1455 2.47778" fill="white"/>
</svg>
