<svg width="66" height="41" viewBox="0 0 66 41" fill="none" xmlns="http://www.w3.org/2000/svg">
<path d="M42.2751 4.94031H22.9482V36.5036H42.2751V4.94031Z" fill="#FF5F00"/>
<path d="M24.9388 20.7248C24.9364 17.6856 25.6255 14.6856 26.9538 11.9519C28.2821 9.21821 30.215 6.82247 32.606 4.94597C29.6446 2.61885 26.0881 1.17175 22.3431 0.770069C18.5981 0.368383 14.8155 1.02832 11.4279 2.67444C8.04018 4.32057 5.184 6.88648 3.18577 10.0789C1.18754 13.2713 0.127869 16.9615 0.127869 20.7276C0.127869 24.4937 1.18754 28.1839 3.18577 31.3763C5.184 34.5687 8.04018 37.1346 11.4279 38.7808C14.8155 40.4269 18.5981 41.0868 22.3431 40.6852C26.0881 40.2835 29.6446 38.8364 32.606 36.5092C30.2142 34.6322 28.281 32.2355 26.9526 29.5008C25.6242 26.7661 24.9356 23.765 24.9388 20.7248Z" fill="#EB001B"/>
<path d="M63.1689 33.1639V32.5171H63.4477V32.3833H62.7841V32.5171H63.0462V33.1639H63.1689ZM64.457 33.1639V32.3833H64.2563L64.0221 32.9408L63.7879 32.3833H63.5871V33.1639H63.7321V32.5729L63.9496 33.0802H64.1001L64.3176 32.5729V33.1639H64.457Z" fill="#F79E1B"/>
<path d="M65.0871 20.7247C65.087 24.4911 64.0271 28.1815 62.0285 31.3741C60.03 34.5666 57.1733 37.1325 53.7852 38.7784C50.3971 40.4242 46.6142 41.0838 42.869 40.6815C39.1237 40.2792 35.5672 38.8314 32.606 36.5036C34.9961 34.6254 36.9284 32.229 38.2571 29.4952C39.5858 26.7614 40.2762 23.7615 40.2762 20.7219C40.2762 17.6824 39.5858 14.6825 38.2571 11.9487C36.9284 9.21487 34.9961 6.81848 32.606 4.94031C35.5672 2.61246 39.1237 1.16466 42.869 0.762401C46.6142 0.360139 50.3971 1.01965 53.7852 2.66554C57.1733 4.31143 60.03 6.87729 62.0285 10.0698C64.0271 13.2624 65.087 16.9528 65.0871 20.7192V20.7247Z" fill="#F79E1B"/>
</svg>
