<svg width="58" height="36" viewBox="0 0 58 36" fill="none" xmlns="http://www.w3.org/2000/svg">
<path d="M37.1428 4.36736H20.3097V31.8579H37.1428V4.36736Z" fill="#FF5F00"/>
<path d="M22.0435 18.1154C22.0414 15.4683 22.6415 12.8554 23.7985 10.4744C24.9554 8.09348 26.6388 6.00687 28.7214 4.3725C26.142 2.34566 23.0445 1.08528 19.7827 0.735427C16.5209 0.385572 13.2264 0.960352 10.2759 2.39408C7.32529 3.8278 4.83766 6.06262 3.09726 8.84312C1.35687 11.6236 0.433929 14.8376 0.433929 18.1178C0.433929 21.398 1.35687 24.612 3.09726 27.3925C4.83766 30.173 7.32529 32.4078 10.2759 33.8415C13.2264 35.2752 16.5209 35.85 19.7827 35.5002C23.0445 35.1503 26.142 33.8899 28.7214 31.8631C26.6382 30.2282 24.9544 28.1408 23.7974 25.759C22.6404 23.3771 22.0406 20.7633 22.0435 18.1154Z" fill="#EB001B"/>
<path d="M55.3407 28.9492V28.3859H55.5835V28.2693H55.0056V28.3859H55.2338V28.9492H55.3407ZM56.4626 28.9492V28.2693H56.2877L56.0837 28.7549L55.8798 28.2693H55.7049V28.9492H55.8312V28.4344L56.0206 28.8763H56.1517L56.3411 28.4344V28.9492H56.4626Z" fill="#F79E1B"/>
<path d="M57.0114 18.1151C57.0113 21.3955 56.0881 24.6097 54.3474 27.3903C52.6067 30.1709 50.1187 32.4057 47.1678 33.8392C44.2169 35.2727 40.9221 35.8471 37.6601 35.4968C34.3981 35.1464 31.3005 33.8854 28.7214 31.858C30.8031 30.2221 32.486 28.135 33.6433 25.7539C34.8005 23.3728 35.4018 20.76 35.4018 18.1127C35.4018 15.4653 34.8005 12.8525 33.6433 10.4715C32.486 8.09037 30.8031 6.00319 28.7214 4.36737C31.3005 2.33989 34.3981 1.0789 37.6601 0.728543C40.9221 0.378186 44.2169 0.952596 47.1678 2.38612C50.1187 3.81963 52.6067 6.05442 54.3474 8.83501C56.0881 11.6156 57.0113 14.8298 57.0114 18.1102V18.1151Z" fill="#F79E1B"/>
</svg>
