<svg width="74" height="45" viewBox="0 0 74 45" fill="none" xmlns="http://www.w3.org/2000/svg">
<path d="M0 5C0 2.23858 2.23858 0 5 0H69C71.7614 0 74 2.23858 74 5V30C74 32.7614 71.7614 35 69 35H48.0277C47.0679 35 46.166 35.4593 45.6015 36.2355L40.1175 43.776C39.3188 44.8742 37.6812 44.8742 36.8825 43.776L31.099 35.8237C30.7227 35.3062 30.1214 35 29.4816 35H5C2.23858 35 0 32.7614 0 30V5Z" fill="white" fill-opacity="0.15" style="mix-blend-mode:overlay"/>
<path d="M0.5 5C0.5 2.51472 2.51472 0.5 5 0.5H69C71.4853 0.5 73.5 2.51472 73.5 5V30C73.5 32.4853 71.4853 34.5 69 34.5H48.0277C46.9079 34.5 45.8557 35.0358 45.1971 35.9414L39.7131 43.4819C39.1141 44.3055 37.8859 44.3055 37.2869 43.4819L31.5034 35.5296C31.0329 34.8827 30.2814 34.5 29.4816 34.5H5C2.51472 34.5 0.5 32.4853 0.5 30V5Z" stroke="white" stroke-opacity="0.5" style="mix-blend-mode:overlay"/>
</svg>
